
        <svg xmlns="http://www.w3.org/2000/svg" xmlns:xlink="http://www.w3.org/1999/xlink" version="1.1" width="3162.1621621621625" 
        height="989.1891891891893" viewBox="0 0 3162.1621621621625 989.1891891891893">
			<rect fill="#a6e3e9" width="3162.1621621621625" height="989.1891891891893"/>
			<g transform="scale(8.108108108108109) translate(10, 10)">
				<defs id="SvgjsDefs4672"></defs><g id="SvgjsG4673" featureKey="rootContainer" transform="matrix(1,0,0,1,0,0)" fill="#111111"><rect y="0" height="1" width="1" opacity="0"></rect><rect y="97" width="370" height="5"></rect></g><g id="SvgjsG4674" featureKey="symbolFeature-0" transform="matrix(3.3112708020884267,0,0,3.3112708020884267,-116.95077426737687,-114.03361378140931)" fill="#111111"><g xmlns="http://www.w3.org/2000/svg"><polygon points="37.876,59.597 35.319,57.04 42.625,49.734 35.319,42.431 37.876,39.874 47.738,49.734  "></polygon></g><g xmlns="http://www.w3.org/2000/svg"><rect x="48.182" y="56.51" width="16.498" height="3.617"></rect></g></g><g id="SvgjsG4675" featureKey="nameFeature-0" transform="matrix(0.8169806675277562,0,0,0.8169806675277562,115.8676642774619,19.697344153221266)" fill="#111111"><path d="M13.027 40.39063 c-6.0547 0 -10.781 -2.9102 -11.641 -8.2031 l6.0547 -1.3867 c0.39063 3.1641 2.7148 4.8047 5.8203 4.8047 c2.3828 0 4.2773 -1.0547 4.2578 -3.4375 c-0.019531 -2.6563 -3.1445 -3.4961 -6.582 -4.5508 c-4.1406 -1.2891 -8.5742 -2.8125 -8.5742 -8.0078 c0 -5.2539 4.2969 -8.2227 9.9609 -8.2227 c4.9609 0 9.9609 2.0117 11.094 7.4219 l-5.6641 1.4063 c-0.52734 -2.8125 -2.4219 -4.043 -5.0781 -4.043 c-2.3633 0 -4.375 0.97656 -4.375 3.3008 c0 2.168 2.7734 2.8906 5.9766 3.8477 c4.2578 1.2891 9.2969 2.9297 9.2969 8.5547 c0 5.9961 -5.0195 8.5156 -10.547 8.5156 z M47.842234375000004 11.777000000000001 l6.2305 0 l-10.43 28.223 l-6.4453 0 l-10.371 -28.223 l6.2109 0 l7.4023 21.387 z M75.58640625 16.934 l-10.469 0 l0 6.4063 l9.2773 0 l0 5.0977 l-9.2773 0 l0 6.3867 l10.469 0 l0 5.1758 l-16.367 0 l0 -28.223 l16.367 0 l0 5.1563 z M101.806953125 11.777000000000001 l5.8398 0 l0 28.223 l-6.7773 0 l-12.5 -20.176 l0 20.176 l-5.8398 0 l0 -28.223 l6.6992 0 l12.578 20.059 l0 -20.059 z M139.364859375 40.39063 c-8.1445 0 -14.141 -5.625 -14.141 -14.434 c0 -8.9258 6.1328 -14.57 14.434 -14.57 c5.4492 0 9.9609 2.4023 12.422 6.6406 l-5.1367 2.7344 c-1.4844 -2.8906 -4.1406 -4.2773 -7.2852 -4.2773 c-4.8828 0 -8.5547 3.3594 -8.5547 9.3359 c0 5.7617 3.4375 9.4727 8.7695 9.4727 c3.6133 0 6.9336 -1.7969 7.7344 -5.918 l-7.7148 0 l0 -4.707 l13.262 0 l0 15.332 l-4.6094 0 l0 -3.9063 c-1.8164 2.6758 -4.8633 4.2969 -9.1797 4.2969 z M165.996075 34.8242 l8.8477 0 l0 5.1758 l-14.707 0 l0 -28.223 l5.8594 0 l0 23.047 z M199.111265625 40 l-2.0508 -5.8203 l-11.855 0 l-2.0508 5.8203 l-5.9961 0 l10.391 -28.223 l7.168 0 l10.391 28.223 l-5.9961 0 z M186.924265625 29.277 l8.418 0 l-4.1992 -11.973 z M220.7035625 40.39063 c-6.1914 0 -11.035 -3.1641 -11.035 -10.273 l0 -18.34 l5.8594 0 l0 17.539 c0 4.2969 2.2852 5.8984 5.1758 5.8984 c2.9102 0 5.2148 -1.6211 5.2148 -5.8984 l0 -17.539 l5.8594 0 l0 18.34 c0 7.1094 -4.8633 10.273 -11.074 10.273 z M248.778953125 40.39063 c-6.0547 0 -10.781 -2.9102 -11.641 -8.2031 l6.0547 -1.3867 c0.39063 3.1641 2.7148 4.8047 5.8203 4.8047 c2.3828 0 4.2773 -1.0547 4.2578 -3.4375 c-0.019531 -2.6563 -3.1445 -3.4961 -6.582 -4.5508 c-4.1406 -1.2891 -8.5742 -2.8125 -8.5742 -8.0078 c0 -5.2539 4.2969 -8.2227 9.9609 -8.2227 c4.9609 0 9.9609 2.0117 11.094 7.4219 l-5.6641 1.4063 c-0.52734 -2.8125 -2.4219 -4.043 -5.0781 -4.043 c-2.3633 0 -4.375 0.97656 -4.375 3.3008 c0 2.168 2.7734 2.8906 5.9766 3.8477 c4.2578 1.2891 9.2969 2.9297 9.2969 8.5547 c0 5.9961 -5.0195 8.5156 -10.547 8.5156 z M282.0121875 16.934 l-10.469 0 l0 6.4063 l9.2773 0 l0 5.0977 l-9.2773 0 l0 6.3867 l10.469 0 l0 5.1758 l-16.367 0 l0 -28.223 l16.367 0 l0 5.1563 z M303.857734375 40 l-7.3438 -12.422 l-1.6992 0 l0 12.422 l-5.8594 0 l0 -28.223 l10.234 0 c6.3867 0 9.082 3.7695 9.082 8.4375 c0 3.7891 -2.1484 6.25 -5.9766 7.0703 l8.4961 12.715 l-6.9336 0 z M294.814434375 16.641 l0 6.7383 l3.457 0 c3.125 0 4.3945 -1.3281 4.3945 -3.3594 c0 -2.0117 -1.2695 -3.3789 -4.3945 -3.3789 l-3.457 0 z"></path></g><g id="SvgjsG4676" featureKey="sloganFeature-0" transform="matrix(0.8113749419993052,0,0,0.8113749419993052,136.7618614978553,58.38058994359405)" fill="#111111"><path d="M11.27 20 l-1.0254 -2.9102 l-5.9277 0 l-1.0254 2.9102 l-2.998 0 l5.1953 -14.111 l3.584 0 l5.1953 14.111 l-2.998 0 z M5.1758 14.6387 l4.209 0 l-2.0996 -5.9863 z M22.255846875 5.888999999999999 c2.7637 0 4.4824 2.0508 4.4824 4.5605 c0 2.5684 -1.7188 4.4922 -4.4824 4.4922 l-2.9395 0 l0 5.0586 l-2.9297 0 l0 -14.111 l5.8691 0 z M21.767546875 12.4902 c1.4648 0 2.1484 -0.81055 2.1484 -2.0801 c0 -1.2207 -0.68359 -2.0703 -2.1484 -2.0703 l-2.4512 0 l0 4.1504 l2.4512 0 z M35.068346875 5.888999999999999 c2.7637 0 4.4824 2.0508 4.4824 4.5605 c0 2.5684 -1.7188 4.4922 -4.4824 4.4922 l-2.9395 0 l0 5.0586 l-2.9297 0 l0 -14.111 l5.8691 0 z M34.580046875 12.4902 c1.4648 0 2.1484 -0.81055 2.1484 -2.0801 c0 -1.2207 -0.68359 -2.0703 -2.1484 -2.0703 l-2.4512 0 l0 4.1504 l2.4512 0 z M49.462846875 20 l-3.6719 -6.2109 l-0.84961 0 l0 6.2109 l-2.9297 0 l0 -14.111 l5.1172 0 c3.1934 0 4.541 1.8848 4.541 4.2188 c0 1.8945 -1.0742 3.125 -2.9883 3.5352 l4.248 6.3574 l-3.4668 0 z M44.941446875 8.32 l0 3.3691 l1.7285 0 c1.5625 0 2.1973 -0.66406 2.1973 -1.6797 c0 -1.0059 -0.63477 -1.6895 -2.1973 -1.6895 l-1.7285 0 z M63.261953125 8.467 l-5.2344 0 l0 3.2031 l4.6387 0 l0 2.5488 l-4.6387 0 l0 3.1934 l5.2344 0 l0 2.5879 l-8.1836 0 l0 -14.111 l8.1836 0 l0 2.5781 z M75.918125 5.888999999999999 l2.9199 0 l0 14.111 l-3.3887 0 l-6.25 -10.088 l0 10.088 l-2.9199 0 l0 -14.111 l3.3496 0 l6.2891 10.029 l0 -10.029 z M90.6740625 5.888999999999999 l0 2.5781 l-3.3496 0 l0 11.533 l-2.9004 0 l0 -11.533 l-3.3691 0 l0 -2.5781 l9.6191 0 z M92.890653125 20 l0 -14.111 l2.9297 0 l0 14.111 l-2.9297 0 z M104.65823125 20 l0 -14.111 l2.9297 0 l0 14.111 l-2.9297 0 z M120.869296875 5.888999999999999 l2.9199 0 l0 14.111 l-3.3887 0 l-6.25 -10.088 l0 10.088 l-2.9199 0 l0 -14.111 l3.3496 0 l6.2891 10.029 l0 -10.029 z M135.76123437500002 8.467 l-5.3711 0 l0 3.2031 l4.6387 0 l0 2.5488 l-4.6387 0 l0 5.7813 l-2.9492 0 l0 -14.111 l8.3203 0 l0 2.5781 z M144.511746875 20.19531 c-4.1504 0 -7.2168 -2.832 -7.2168 -7.2559 c0 -4.4336 3.0664 -7.2461 7.2168 -7.2461 c4.1406 0 7.207 2.8125 7.207 7.2461 c0 4.4238 -3.0664 7.2559 -7.207 7.2559 z M144.511746875 17.5098 c2.4316 0 4.2969 -1.709 4.2969 -4.5703 c0 -2.8516 -1.8652 -4.5508 -4.2969 -4.5508 s-4.2969 1.6992 -4.2969 4.5508 c0 2.8613 1.8652 4.5703 4.2969 4.5703 z M161.865190625 20 l-3.6719 -6.2109 l-0.84961 0 l0 6.2109 l-2.9297 0 l0 -14.111 l5.1172 0 c3.1934 0 4.541 1.8848 4.541 4.2188 c0 1.8945 -1.0742 3.125 -2.9883 3.5352 l4.248 6.3574 l-3.4668 0 z M157.343790625 8.32 l0 3.3691 l1.7285 0 c1.5625 0 2.1973 -0.66406 2.1973 -1.6797 c0 -1.0059 -0.63477 -1.6895 -2.1973 -1.6895 l-1.7285 0 z M183.652296875 20 l-2.9199 0 l-0.92773 -10.635 l-3.5742 10.635 l-1.8945 0 l-3.5742 -10.635 l-0.9375 10.635 l-2.9297 0 l1.1816 -14.111 l4.1797 0 l3.0078 8.8574 l3.0469 -8.8574 l4.1797 0 z M196.162578125 20 l-1.0254 -2.9102 l-5.9277 0 l-1.0254 2.9102 l-2.998 0 l5.1953 -14.111 l3.584 0 l5.1953 14.111 l-2.998 0 z M190.068378125 14.6387 l4.209 0 l-2.0996 -5.9863 z M209.463125 5.888999999999999 l0 2.5781 l-3.3496 0 l0 11.533 l-2.9004 0 l0 -11.533 l-3.3691 0 l0 -2.5781 l9.6191 0 z M211.679715625 20 l0 -14.111 l2.9297 0 l0 14.111 l-2.9297 0 z M224.50198125 20.19531 c-4.1504 0 -7.2168 -2.8223 -7.2168 -7.2559 s3.0664 -7.2461 7.2168 -7.2461 c3.1445 0 5.6641 1.6113 6.6699 4.2871 l-2.7344 0.99609 c-0.625 -1.6406 -2.1191 -2.5879 -3.9355 -2.5879 c-2.4316 0 -4.2969 1.6992 -4.2969 4.5508 s1.8652 4.5605 4.2969 4.5605 c1.8164 0 3.3105 -0.95703 3.9355 -2.5977 l2.7344 0.99609 c-1.0059 2.6758 -3.5254 4.2969 -6.6699 4.2969 z M233.574246875 20 l0 -14.111 l2.9297 0 l0 14.111 l-2.9297 0 z M248.3303125 8.467 l-5.2344 0 l0 3.2031 l4.6387 0 l0 2.5488 l-4.6387 0 l0 3.1934 l5.2344 0 l0 2.5879 l-8.1836 0 l0 -14.111 l8.1836 0 l0 2.5781 z M260.986484375 5.888999999999999 l2.9199 0 l0 14.111 l-3.3887 0 l-6.25 -10.088 l0 10.088 l-2.9199 0 l0 -14.111 l3.3496 0 l6.2891 10.029 l0 -10.029 z"></path></g>
			</g>
		</svg>
	